<svg xmlns="http://www.w3.org/2000/svg" fill="none" viewBox="0 0 889 426">
  <path fill="#000" d="M701.333.676361c-21.466 3.333329-35.466 7.599999-54 16.666639C603.867 38.6764 574 77.8764 560.8 131.21c-2.667 10.533-6.133 36.266-6.133 44.8 0 7.333.4 7.466 8.8 4.266 2-.666 2.133-.266 1.466 3.067-9.733 45.733-16.8 87.067-19.733 114.933-2 19.734-.8 56.8 2.133 67.6 4 14.8 12.134 29.334 21.467 39.067 6.8 6.933 8.533 8.267 8 5.6-4.667-19.2-4.133-52.667 1.2-79.733 1.867-9.734 4-18.934 4.533-20.667 1.2-3.2 1.6-1.733 3.6 15.067 3.067 25.333 16 51.2 31.467 62.133l5.733 4.267 5.734-4.934 5.733-4.8-2.8-10.533c-2.533-10-5.333-40.8-3.6-40.8.4 0 1.733 3.467 2.933 7.6 2.667 9.333 11.2 27.867 14.934 32.267l2.666 3.333 7.2-3.2c4-1.733 13.867-5.333 21.867-8l14.667-4.933 1.2-8.667 1.066-8.8 8.934-1.6c17.066-3.2 40.266-10.133 51.866-15.6 3.867-1.867 4.667-1.867 5.734-.267.666 1.067 1.2 2.8 1.2 4 0 1.2 1.2 6.267 2.8 11.334 2.4 7.733 2.533 9.866 1.2 14.4-2.934 10.266-19.734 42.8-29.734 57.733-5.6 8.267-9.466 15.067-8.666 15.067.666 0 5.333-1.6 10.133-3.467 19.467-7.733 40.8-25.467 51.867-43.067 2.666-4.133 5.6-8.8 6.533-10.4l1.867-2.933 7.066 4c3.734 2.267 10.134 6.533 14.134 9.6l7.066 5.467 3.334-3.867c8.4-10.4 15.733-23.467 19.066-34 2.134-6.4 1.334 27.333-.8 38.667-1.066 6-1.733 11.2-1.466 11.6.4.266 4.133-1.2 8.4-3.2 15.333-7.2 26-23.067 30.8-45.734 2.133-9.866 2.4-18.266 2.266-66 0-73.066-4-126.266-11.866-159.066C858.8 48.143 796.267-.790305 720 .00969462 711.6.143028 703.2.409695 701.333.676361ZM723.2 128.01c1.2 12.8 2.533 26.266 2.933 30l.667 6.933 12.933 1.467c7.067.933 18.8 2.533 26 3.733 7.2 1.2 13.2 1.867 13.467 1.6 1.333-1.467 3.467-26.4 3.467-41.2 0-9.733.533-16 1.2-15.333.666.8 2.266 8.533 3.466 17.333 5.334 36.133 1.6 113.2-7.466 155.6-1.734 8-4 10.133-18.4 17.6-21.734 11.2-53.067 20.133-75.467 21.733-9.333.534-11.867.267-20.667-2.933-32.266-11.733-62.266-32.8-67.333-47.2-1.067-3.333-2.533-14.8-3.333-27.067-.934-15.333-2.534-25.866-5.334-37.466-5.066-21.334-7.2-33.467-6.266-36 .4-1.2 4.133-2.667 10.266-3.734 5.2-.933 9.734-2.133 10-2.666.4-.534 2.934-10.134 5.867-21.334 5.467-22.133 12.267-44.266 13.067-43.333.266.267 0 6.4-.8 13.6-.667 7.333-1.467 21.333-1.734 31.2l-.4 18 3.334-.4c1.866-.133 9.066-.933 16-1.733 6.933-.667 26.533-1.734 43.466-2.134l30.667-.8 2.933-25.466c1.6-14 2.934-28.134 2.934-31.467.133-12.8 2.533-1.333 4.533 21.467Zm128.4 80.533c4.267 2.933 6.133 10.267 5.067 19.067-2.667 21.066-16.267 40.266-28.534 40.266H823.6l.933-7.066c.534-3.734 1.867-13.2 2.934-20.934.933-7.733 1.866-16.533 1.866-19.733 0-8.267 5.467-13.6 13.6-13.6 3.2 0 7.067.933 8.667 2Zm-495.467-118c-9.733 2.2667-16.666 10.933-16.4 20.8.134 15.067 17.334 24.8 31.467 17.867 13.2-6.267 16.8-20.134 8-30.667-5.867-6.9333-14.4-9.8666-23.067-8ZM0 152.143c0 .933 11.7333 35.2 26 76.133 14.2667 40.934 26 75.2 26 76.134 0 .933-1.4667 4.666-3.3333 8.4-4.4 8.666-10 11.733-19.4667 10.533-3.6-.533-7.3333-1.2-8.2667-1.467-1.7333-.666-11.06663 29.067-9.7333 31.2 1.7333 2.667 13.2 4.4 27.0667 4 13.2-.533 15.3333-.933 23.3333-4.933 9.8667-4.8 19.6-14.4 25.2-25.067 2.9333-5.333 62.533-173.066 62.533-175.733 0-.533-9.733-.667-21.6-.533l-21.733.4-15.3333 54c-8.5334 29.733-16 53.866-16.6667 53.733-.6667-.133-2-2.8-2.8-6-.9333-3.2-7.7333-27.467-15.2-54.133l-13.7333-48.267H21.2c-16.13333 0-21.2.4-21.2 1.6Zm170.667 49.333c0 54.4.8 62.934 6.666 74.4 4.267 8.534 12.8 16.8 21.2 20.934 6.8 3.466 8.8 3.733 22.8 3.733 12.8 0 16.267-.4 21.467-2.8 8-3.733 16.4-11.333 20.933-19.067l3.6-6.133.4 13.6.4 13.733H308V150.543h-41.333v45.067c0 35.866-.4 46.533-2 51.733-6.4 21.6-37.2 26.267-48.4 7.467l-3.6-6.267-.4-49.067-.4-48.933h-41.2v50.933Zm170.666 23.734v74.666h41.334l-.267-74.4-.4-74.266-20.267-.4-20.4-.4v74.8ZM430 258.41c-13.2 5.866-18.267 22.666-10.267 33.466 8.934 12.134 25.467 13.734 35.734 3.467 11.2-11.2 8.266-29.2-6.134-36.533-7.066-3.6-12.266-3.734-19.333-.4Z"/>
</svg>
