<svg xmlns="http://www.w3.org/2000/svg" fill="none" viewBox="0 0 345 426">
  <path fill="#000" d="M157.121.676361c-21.466 3.333329-35.466 7.599999-54 16.666639C59.6546 38.6764 29.7879 77.8764 16.5879 131.21c-2.6667 10.533-6.1333 36.266-6.1333 44.8 0 7.333.4 7.466 8.8 4.266 2-.666 2.1333-.266 1.4666 3.067C10.9879 229.076 3.92123 270.41.987897 298.276c-1.999997 19.734-.8 56.8 2.133333 67.6 4 14.8 12.13337 29.334 21.46667 39.067 6.8 6.933 8.5333 8.267 8 5.6-4.6667-19.2-4.1333-52.667 1.2-79.733 1.8667-9.734 4-18.934 4.5333-20.667 1.2-3.2 1.6-1.733 3.6 15.067 3.0667 25.333 16 51.2 31.4667 62.133l5.7333 4.267 5.7334-4.934 5.7333-4.8-2.8-10.533c-2.5333-10-5.3333-40.8-3.6-40.8.4 0 1.7333 3.467 2.9333 7.6 2.6667 9.333 11.2 27.867 14.9338 32.267l2.666 3.333 7.2-3.2c4-1.733 13.867-5.333 21.867-8l14.667-4.933 1.2-8.667 1.066-8.8 8.934-1.6c17.066-3.2 40.266-10.133 51.866-15.6 3.867-1.867 4.667-1.867 5.734-.267.666 1.067 1.2 2.8 1.2 4 0 1.2 1.2 6.267 2.8 11.334 2.4 7.733 2.533 9.866 1.2 14.4-2.934 10.266-19.734 42.8-29.734 57.733-5.6 8.267-9.466 15.067-8.666 15.067.666 0 5.333-1.6 10.133-3.467 19.467-7.733 40.8-25.467 51.867-43.067 2.666-4.133 5.6-8.8 6.533-10.4l1.867-2.933 7.066 4c3.734 2.267 10.134 6.533 14.134 9.6l7.066 5.467 3.334-3.867c8.4-10.4 15.733-23.467 19.066-34 2.134-6.4 1.334 27.333-.8 38.667-1.066 6-1.733 11.2-1.466 11.6.4.266 4.133-1.2 8.4-3.2 15.333-7.2 26-23.067 30.8-45.734 2.133-9.866 2.4-18.266 2.266-66 0-73.066-4-126.266-11.866-159.066C314.588 48.143 252.055-.790305 175.788.00969462c-8.4.13333338-16.8.40000038-18.667.66666638ZM178.988 128.01c1.2 12.8 2.533 26.266 2.933 30l.667 6.933 12.933 1.467c7.067.933 18.8 2.533 26 3.733 7.2 1.2 13.2 1.867 13.467 1.6 1.333-1.467 3.467-26.4 3.467-41.2 0-9.733.533-16 1.2-15.333.666.8 2.266 8.533 3.466 17.333 5.334 36.133 1.6 113.2-7.466 155.6-1.734 8-4 10.133-18.4 17.6-21.734 11.2-53.067 20.133-75.467 21.733-9.333.534-11.867.267-20.667-2.933-32.2664-11.733-62.2664-32.8-67.3331-47.2-1.0667-3.333-2.5333-14.8-3.3333-27.067-.9334-15.333-2.5334-25.866-5.3334-37.466-5.0666-21.334-7.2-33.467-6.2666-36 .4-1.2 4.1333-2.667 10.2666-3.734 5.2-.933 9.7334-2.133 10-2.666.4-.534 2.9334-10.134 5.8667-21.334 5.4667-22.133 12.2667-44.266 13.0667-43.333.2666.267 0 6.4-.8 13.6-.6667 7.333-1.4667 21.333-1.7334 31.2l-.4 18 3.3334-.4c1.8666-.133 9.0666-.933 16-1.733 6.9334-.667 26.5334-1.734 43.4664-2.134l30.667-.8 2.933-25.466c1.6-14 2.934-28.134 2.934-31.467.133-12.8 2.533-1.333 4.533 21.467Zm128.4 80.533c4.267 2.933 6.133 10.267 5.067 19.067-2.667 21.066-16.267 40.266-28.534 40.266h-4.533l.933-7.066c.534-3.734 1.867-13.2 2.934-20.934.933-7.733 1.866-16.533 1.866-19.733 0-8.267 5.467-13.6 13.6-13.6 3.2 0 7.067.933 8.667 2Z"/>
</svg>
